<svg id="Layer_1" data-name="Layer 1" xmlns="http://www.w3.org/2000/svg" viewBox="0 0 1441.62 381.05"><defs><style>.cls-1{fill:#fff;}.cls-2,.cls-3{fill:none;stroke:#000;stroke-miterlimit:10;}.cls-2{stroke-width:7px;}</style></defs><path d="M137.8,165.69a9.41,9.41,0,1,0-17.59,6.68c.1.27.21.52.33.77a9.29,9.29,0,0,0,4.61,4.47,9.42,9.42,0,0,0,12.44-4.73h0a9.34,9.34,0,0,0,.21-7.19Zm-5.57,4.79a3.54,3.54,0,0,1-4.67,1.77h0a3.52,3.52,0,0,1-1.86-2,3.47,3.47,0,0,1,.08-2.7,3.54,3.54,0,0,1,6.4-.1c0,.1.09.2.13.29A3.58,3.58,0,0,1,132.23,170.48Z" transform="translate(-75.85 37.43)"/><path d="M120.56,121.82a11.57,11.57,0,0,0,21-.32h0a11.56,11.56,0,1,0-21.1-9.47,11.44,11.44,0,0,0-.26,8.84A9,9,0,0,0,120.56,121.82Zm5.21-7.39a5.69,5.69,0,0,1,7.53-2.86,5.71,5.71,0,0,1,2.86,7.52,5.71,5.71,0,0,1-7.53,2.87h0a5.71,5.71,0,0,1-2.86-7.53Z" transform="translate(-75.85 37.43)"/><path d="M140.22,149.37c.15.39.31.76.49,1.13a13.73,13.73,0,0,0,24.86-.38h0a13.75,13.75,0,0,0-6.9-18.14h0a13.72,13.72,0,0,0-18.45,17.39Zm5.67-8.09a7.85,7.85,0,0,1,14.32,6.43,7.85,7.85,0,0,1-10.38,3.94h0a7.84,7.84,0,0,1-3.94-10.37Z" transform="translate(-75.85 37.43)"/><path d="M208.79,130.12a7.32,7.32,0,0,1,2.27-5.5h0a7.3,7.3,0,0,1,4.9-2,7.87,7.87,0,0,1,0,1c-.21,2-.51,2.26-2,3.5C212.6,128.07,210.39,130.07,208.79,130.12ZM104.52,73.52a7.33,7.33,0,0,1,5.1-2.42A125.93,125.93,0,0,1,213.39,117a13.09,13.09,0,0,0-6.39,3.39,13.23,13.23,0,0,0-3,4.34,12.38,12.38,0,0,0-.86,3,3,3,0,0,1-.29-.32,111.24,111.24,0,0,0-92.47-41.53A7.23,7.23,0,0,1,107,85.2h0a7.33,7.33,0,0,1-4.34-6.37h0A7.28,7.28,0,0,1,104.52,73.52Zm-9.6,75.4c-.53.59-1.08,1.26-1.66,2-1.5,1.89-3.78,4-6.16,3.57-2.11-.43-3.8-2.72-4.37-4.75-.36-1.3-1.47-5.25,8.73-10.92,7.24-4,8.27-9.21,6.82-12.71-1.54-3.76-6-5.73-10.27-4.52-3,.85-5.25.16-6.05-1.91a5,5,0,0,1,.52-4.13c1.19-2.07,3.61-3.45,7-4a27.48,27.48,0,0,0,12.14-4.79,16.53,16.53,0,0,0,6.45-13.36V91.55a13.31,13.31,0,0,0,2.6.15A105.37,105.37,0,0,1,198.25,131a13.42,13.42,0,0,0,1.82,1.87L108.62,213.4l-.26-59.49a7.66,7.66,0,0,0-13.44-5Zm139.31,82.15a13.53,13.53,0,0,0-.22,2.61L113.3,217.28l90.34-79,1.37-1.2a13.79,13.79,0,0,0,1.59,2.06,105.35,105.35,0,0,1,27.63,91.95Zm22.65-56.93a131,131,0,0,0-31.15-53.37,13.27,13.27,0,0,0-5-3.26,13.53,13.53,0,0,0-1.84-3.06,131.92,131.92,0,0,0-109.6-49.22,13.26,13.26,0,0,0-12.57,13.9,13.4,13.4,0,0,0,1.31,5.12,13.23,13.23,0,0,0,4.12,4.89l0,4.25A10.7,10.7,0,0,1,98.12,102a22.11,22.11,0,0,1-9.59,3.71c-6.55,1.07-9.68,4.33-11.14,6.87a10.82,10.82,0,0,0-.92,9.15c1.57,4.09,6.24,7.42,13.14,5.47a2.69,2.69,0,0,1,3.24,1.11c.5,1.2-.62,3.31-4.25,5.33-9.45,5.26-13.33,11.2-11.52,17.64,1,3.77,4.2,8,8.86,8.93,2.92.58,7.36.08,11.92-5.68.52-.65,1-1.23,1.48-1.77a1.79,1.79,0,0,1,3.14,1.16l.3,65.94a2.89,2.89,0,0,0,.29,1.27,3,3,0,0,0,1.44,1.4,2.89,2.89,0,0,0,1.38.25,2.85,2.85,0,0,0,1.33-.42l128.5,17.46c.22.38.39.79.64,1.15a13.25,13.25,0,0,0,23.94-5.16A130.8,130.8,0,0,0,256.88,174.14Zm-2.36,60.64a7.26,7.26,0,0,1-2.27,4.12,7,7,0,0,1-.79.62,7.37,7.37,0,0,1-10.26-1.87c0-.07-.1-.13-.14-.21a7.38,7.38,0,0,1-1.05-5.31,110.37,110.37,0,0,0-2.89-52c-5-16.74-16.32-34.87-28.34-47.6l11.52-9.9a136.87,136.87,0,0,1,30.95,53.25A125,125,0,0,1,254.52,234.78Z" transform="translate(-75.85 37.43)"/><path d="M164.83,194.91a9.4,9.4,0,0,0-12.75,3.83c-.13.25-.25.49-.36.75a9.41,9.41,0,0,0,11.36,12.71h0a9.31,9.31,0,0,0,5.57-4.55h0a9.42,9.42,0,0,0-3.83-12.74Zm-1.21,9.67a2.59,2.59,0,0,1-.14.29,3.49,3.49,0,0,1-2.09,1.71,3.53,3.53,0,0,1-4.4-2.37h0a3.53,3.53,0,0,1,2.36-4.4,3.54,3.54,0,0,1,4.27,4.77Z" transform="translate(-75.85 37.43)"/><path d="M206.63,160.26A11.56,11.56,0,0,0,191,165a8,8,0,0,0-.45.93,11.57,11.57,0,0,0,14,15.63h0a11.57,11.57,0,0,0,2.15-21.27Zm-.25,12.43a5.69,5.69,0,0,1-10.68-.6h0a5.7,5.7,0,0,1,8.15-6.66,5.7,5.7,0,0,1,2.53,7.26Z" transform="translate(-75.85 37.43)"/><path class="cls-1" d="M224.42,128.76a7.89,7.89,0,0,1-7.89,7.89c-2.94,0-5.24-2-7.18-4.17a6.61,6.61,0,0,1-.7-3.72,8.72,8.72,0,0,1,7.88-7.88,6,6,0,0,1,4.7,2.05C221.51,123.2,224.42,125.54,224.42,128.76Z" transform="translate(-75.85 37.43)"/><path class="cls-2" d="M252.18,241.53c-.88,2.49-.93,2.42-1.92,4.78C213.36,335,105.65,333,105.65,333V219.89l130.91,17.05" transform="translate(-75.85 37.43)"/><path class="cls-3" d="M236,238.89" transform="translate(-75.85 37.43)"/><path d="M432.88,215.06H325.78v88.2h117.3l-2.4,15H309.58v-210h128.7v15H325.78v76.8h107.1Z" transform="translate(-75.85 37.43)"/><path d="M469.47,108.26h16.2v195h112.8l-3,15h-126Z" transform="translate(-75.85 37.43)"/><path d="M632.07,108.26v210h-16.2v-210Z" transform="translate(-75.85 37.43)"/><path d="M728.67,318.26l-78-210h17.4l40.8,109.8c11.7,31.8,24.9,66.9,29.4,84.6h.6c4.5-15.6,18.9-52.5,30.6-83.4l42.3-111h17.1l-81,210Z" transform="translate(-75.85 37.43)"/><path d="M972.87,215.06H865.77v88.2h117.3l-2.4,15H849.57v-210h128.7v15H865.77v76.8h107.1Z" transform="translate(-75.85 37.43)"/><path d="M1026,220.16v98.1h-16.5v-210h75.31c41.4,0,63.3,22.2,63.3,55.2,0,26.7-15.9,44.1-39.3,49.2,21.6,5.1,36,19.2,36,54.9v8.1c0,14.7-1.2,34.5,2.7,42.6H1131c-3.9-9-3-25.8-3-43.8v-5.4c0-34.5-10.2-48.9-50.4-48.9Zm0-15h50.71c36.9,0,54-13.8,54-41.4,0-25.8-16.8-40.5-49.5-40.5H1026Z" transform="translate(-75.85 37.43)"/><text x="-75.85" y="37.43"/><path d="M1185.87,304.85a3,3,0,1,0,0,6h61.63c1.07,12,8.58,22.74,20,28.48a40.86,40.86,0,0,0,36.54,0c11.4-5.74,18.91-16.46,20-28.48h73c1.07,11.95,8.5,22.6,19.79,28.38a40.89,40.89,0,0,0,36.33.31c11.4-5.57,19-16.09,20.36-28h20.14a3.33,3.33,0,0,0,4,0h16.68a3,3,0,1,0,0-6h-15.47V248.28a2.82,2.82,0,0,0-.29-1.24l-51-104.4a3.22,3.22,0,0,0-2.89-1.75h0l-68-.66V126.48c0-16-6.09-23.07-19.74-23.07H1221.8c-12.73,0-19.73,6.29-19.73,17.71V304.86h-16.2Zm249.35,32.8a33.26,33.26,0,0,1-22.62-8.74,28.34,28.34,0,0,1,0-42.14,33.7,33.7,0,0,1,45.26,0,28.39,28.39,0,0,1,0,42.15,33.23,33.23,0,0,1-22.63,8.73Zm-58.59-120.51h100.2l15.54,31.79v56.6h-18.86c-.83-12.13-8.22-23-19.61-28.94a40.84,40.84,0,0,0-36.74-.32c-11.52,5.71-19.12,16.48-20.2,28.59h-20.33Zm0-70.93,65.86.64,31.44,64.31h-97.29Zm-90.87,191.44a33.28,33.28,0,0,1-22.62-8.74,28.36,28.36,0,0,1,0-42.14,33.7,33.7,0,0,1,45.26,0,28.39,28.39,0,0,1,0,42.15,33.23,33.23,0,0,1-22.63,8.73Zm-77.27-126.49h161.73v93.7H1324c-1.08-12-8.59-22.74-20-28.49a40.92,40.92,0,0,0-36.54,0c-11.4,5.75-18.91,16.46-20,28.49h-39Zm0-90c0-8.12,4.11-11.74,13.32-11.74h135.09c8.44,0,13.33,2.8,13.33,17.09v84.68H1208.48Z" transform="translate(-75.85 37.43)"/><path d="M1245.46,146.13h8.19v42.2c3.93-6.57,12-12.62,28-12.62,19.33,0,33.59,12.75,33.59,33,0,20.77-12.78,35.88-35.72,35.88-13.77,0-21.63-4.47-25.89-12,0,4.21-.17,8.55-.33,10.39h-8c.17-7.5.17-15,.17-22.48Zm61.11,62.71c0-16.43-10.16-27-25.72-27-20.48,0-27.69,11.17-27.69,28.39,0,15.52,6.39,28.14,26.7,28.14C1296.41,238.42,1306.57,227.37,1306.57,208.84Z" transform="translate(-75.85 37.43)"/></svg>