<?xml version="1.0" encoding="utf-8"?>
<!-- Generator: Adobe Illustrator 25.2.0, SVG Export Plug-In . SVG Version: 6.00 Build 0)  -->
<svg version="1.1" id="Layer_1" xmlns="http://www.w3.org/2000/svg" xmlns:xlink="http://www.w3.org/1999/xlink" x="0px" y="0px"
	 viewBox="0 0 700 543.9" style="enable-background:new 0 0 700 543.9;" xml:space="preserve">
<g>
	<path d="M374,227c2.2,0.9,4.8,0.4,6.5-1.3l120.4-120.4c1.1-1.1,1.7-2.6,1.7-4.2s-0.6-3.1-1.7-4.2c-16.3-16.4-35.7-29.4-57.1-38.3
		c-21.4-8.9-44.3-13.4-67.5-13.3c-3.3,0-5.9,2.7-5.9,5.9v170.2C370.3,223.9,371.7,226,374,227L374,227z M382.2,207.1V84
		c32.4,1.3,63.2,14.1,87.1,36.1L382.2,207.1z M488.2,101.2l-10.5,10.5c-26-24.2-59.9-38.2-95.4-39.5V57.3
		C421.6,58.6,459.3,74.2,488.2,101.2z M309.4,233.8c4.9,0,9.5-1.9,12.9-5.4c3.4-3.4,5.4-8.1,5.4-12.9c0-4.9-1.9-9.5-5.4-12.9
		c-3.4-3.4-8.1-5.4-12.9-5.4c-4.9,0-9.5,1.9-12.9,5.4c-3.4,3.4-5.4,8.1-5.4,12.9c0,4.9,1.9,9.5,5.4,12.9
		C299.9,231.9,304.6,233.8,309.4,233.8L309.4,233.8z M309.4,209.1c2.6,0,4.9,1.6,5.9,4c1,2.4,0.4,5.2-1.4,7s-4.6,2.4-7,1.4
		c-2.4-1-4-3.3-4-5.9C303,212,305.9,209.1,309.4,209.1L309.4,209.1z M260.9,293.2c-5.4,0-10.5,2.1-14.3,5.9c-3.8,3.8-5.9,9-5.9,14.4
		c0,5.4,2.1,10.5,5.9,14.3c3.8,3.8,9,5.9,14.4,5.9c5.4,0,10.5-2.1,14.3-5.9c3.8-3.8,5.9-9,5.9-14.4c0-5.4-2.1-10.5-6-14.3
		C271.5,295.4,266.3,293.2,260.9,293.2L260.9,293.2z M260.9,321.9c-3.4,0-6.5-2.1-7.8-5.2c-1.3-3.1-0.6-6.8,1.8-9.2s6-3.1,9.2-1.8
		c3.1,1.3,5.2,4.4,5.2,7.8C269.3,318.2,265.6,321.9,260.9,321.9L260.9,321.9z M350,361.2c-5.3,0-10.4,2.1-14.2,5.9
		c-3.8,3.8-5.9,8.9-5.9,14.2c0,5.3,2.1,10.4,5.9,14.2c3.8,3.8,8.9,5.9,14.2,5.9s10.5-2.1,14.2-5.9c3.8-3.8,5.9-8.9,5.9-14.2
		c0-5.3-2.1-10.4-5.9-14.2C360.4,363.3,355.3,361.2,350,361.2L350,361.2z M350,389.6c-3.3,0-6.3-2-7.6-5.1s-0.6-6.6,1.8-9
		c2.4-2.4,5.9-3.1,9-1.8c3.1,1.3,5.1,4.3,5.1,7.6C358.2,385.9,354.5,389.6,350,389.6L350,389.6z M432.2,278.4
		c3.9,0,7.7-1.6,10.5-4.3s4.3-6.6,4.3-10.5s-1.6-7.7-4.3-10.5c-2.8-2.8-6.6-4.3-10.5-4.3s-7.7,1.6-10.5,4.4
		c-2.8,2.8-4.3,6.6-4.3,10.5c0,3.9,1.6,7.7,4.4,10.5C424.5,276.8,428.2,278.4,432.2,278.4L432.2,278.4z M432.2,260.6
		c1.2,0,2.3,0.7,2.7,1.8c0.5,1.1,0.2,2.4-0.6,3.2c-0.9,0.8-2.1,1.1-3.2,0.6c-1.1-0.5-1.8-1.5-1.8-2.7
		C429.2,261.9,430.5,260.6,432.2,260.6L432.2,260.6z M436.4,361c5.5,0,10.8-2.2,14.7-6.1c3.9-3.9,6.1-9.2,6.1-14.7
		c0-5.5-2.2-10.8-6.1-14.7c-3.9-3.9-9.2-6.1-14.7-6.1c-5.5,0-10.8,2.2-14.7,6.1c-3.9,3.9-6.1,9.2-6.1,14.7c0,5.5,2.2,10.8,6.1,14.7
		C425.6,358.8,430.9,361,436.4,361L436.4,361z M436.4,331.4L436.4,331.4c3.6,0,6.9,2.2,8.2,5.5s0.6,7.2-1.9,9.7
		c-2.6,2.5-6.4,3.3-9.7,1.9s-5.5-4.6-5.5-8.2C427.5,335.3,431.5,331.4,436.4,331.4L436.4,331.4z M364.2,337.8c5,0,9.8-2,13.3-5.5
		c3.5-3.5,5.5-8.3,5.5-13.3c0-5-2-9.8-5.5-13.3c-3.5-3.5-8.3-5.5-13.3-5.5c-5,0-9.8,2-13.3,5.5c-3.5,3.5-5.5,8.3-5.5,13.3
		c0,5,2,9.8,5.5,13.3C354.4,335.8,359.2,337.8,364.2,337.8L364.2,337.8z M364.2,312c2.8,0,5.3,1.7,6.4,4.3c1.1,2.6,0.5,5.6-1.5,7.6
		c-2,2-5,2.6-7.6,1.5c-2.6-1.1-4.3-3.6-4.3-6.4C357.3,315.2,360.4,312.1,364.2,312L364.2,312z M395.3,137.3c0,5,2,9.8,5.5,13.3
		c3.5,3.5,8.3,5.5,13.3,5.5c5,0,9.8-2,13.3-5.5s5.5-8.3,5.5-13.3s-2-9.8-5.5-13.3c-3.5-3.5-8.3-5.5-13.3-5.5c-5,0-9.8,2-13.3,5.5
		C397.3,127.6,395.3,132.3,395.3,137.3L395.3,137.3z M414.1,130.4c2.8,0,5.3,1.7,6.4,4.3c1.1,2.6,0.5,5.6-1.5,7.6
		c-2,2-5,2.6-7.6,1.5c-2.6-1.1-4.3-3.6-4.3-6.4C407.2,133.5,410.3,130.4,414.1,130.4L414.1,130.4z M288.1,269.5
		c-1.1,0-2.2-0.3-3.2-0.9l-23.3-14.8c-2.8-1.8-3.6-5.4-1.8-8.2s5.4-3.6,8.2-1.8l23.3,14.8h0c2.2,1.4,3.2,4.1,2.5,6.7
		C293.1,267.7,290.8,269.5,288.1,269.5L288.1,269.5z M314.4,346.5L302,365.3c-1.8,2.7-5.5,3.5-8.2,1.7c-2.7-1.8-3.5-5.5-1.7-8.2
		l12.4-18.8c1.8-2.7,5.5-3.5,8.2-1.7C315.4,340.1,316.2,343.8,314.4,346.5L314.4,346.5z M438.6,293.2h28.2v0c1.6,0,3.1,0.6,4.2,1.7
		c1.1,1.1,1.7,2.6,1.7,4.2s-0.6,3.1-1.7,4.2c-1.1,1.1-2.6,1.7-4.2,1.7h-28.2c-1.6,0-3.1-0.6-4.2-1.7c-1.1-1.1-1.7-2.6-1.7-4.2
		s0.6-3.1,1.7-4.2C435.5,293.9,437,293.2,438.6,293.2L438.6,293.2z M388.9,104.7c0-3.3,2.7-5.9,5.9-5.9h12.9c3.3,0,5.9,2.7,5.9,5.9
		c0,3.3-2.7,5.9-5.9,5.9h-12.9C391.5,110.6,388.9,108,388.9,104.7z M447,223.3c-1-3.1,0.7-6.5,3.8-7.5c3.1-1,6.5,0.7,7.5,3.8
		l3.2,9.9c0.5,1.5,0.4,3.1-0.4,4.5s-2,2.5-3.5,3s-3.1,0.4-4.5-0.4c-1.4-0.7-2.5-2-2.9-3.5L447,223.3z M297.3,178.2
		c-0.2-1.6,0.2-3.1,1.2-4.4c1-1.2,2.4-2.1,3.9-2.3l18.6-2.5v0c3.2-0.4,6.2,1.9,6.7,5.1c0.4,3.3-1.8,6.2-5.1,6.7l-18.6,2.5
		c-0.3,0-0.5,0.1-0.8,0.1C300.2,183.4,297.7,181.2,297.3,178.2L297.3,178.2z M326.2,309.1L326.2,309.1c-0.9,0-1.7-0.2-2.5-0.6
		l-13.7-6.4v0c-3-1.4-4.2-4.9-2.9-7.9c1.4-3,4.9-4.2,7.9-2.9l13.7,6.4c2.5,1.2,3.9,4,3.3,6.7S329,309.1,326.2,309.1L326.2,309.1z
		 M554.9,395.5c-3.3,0-5.9,2.7-5.9,6c0,11.6-4.6,22.7-12.8,30.9c-8.2,8.2-19.3,12.8-30.9,12.8H416c36.6-14.1,67.5-40.1,87.7-73.8
		c20.2-33.7,28.5-73.1,23.7-112.1c-4.8-39-22.5-75.2-50.3-103c-2.4-2.2-6-2.2-8.4,0l-18.9,18.9l-91.4,91.4V110.6
		c0-3.3-2.7-5.9-5.9-5.9c-41.1,0-81,14.4-112.6,40.7c-31.6,26.3-53.1,62.8-60.6,103.2c-7.5,40.4-0.7,82.2,19.3,118.1
		c20,35.9,52,63.7,90.4,78.5h-94.2c-11.6,0-22.7-4.6-30.9-12.8c-8.2-8.2-12.8-19.3-12.8-31c0-3.3-2.7-5.9-6-5.9
		c-3.3,0-5.9,2.7-5.9,6c0,14.8,5.9,28.9,16.3,39.3c10.4,10.4,24.6,16.3,39.3,16.3h20c-5.9,6.7-9,15.5-8.6,24.4
		c0.4,9,4.2,17.4,10.7,23.6c6.5,6.2,15.1,9.7,24.1,9.7s17.6-3.5,24.1-9.7c6.5-6.2,10.3-14.7,10.7-23.6c0.4-9-2.7-17.7-8.6-24.4
		h165.9c-5.9,6.7-9,15.5-8.6,24.4s4.2,17.4,10.7,23.6c6.5,6.2,15.1,9.7,24.1,9.7c9,0,17.6-3.5,24.1-9.7c6.5-6.2,10.3-14.7,10.7-23.6
		c0.4-9-2.7-17.7-8.6-24.4h20c14.8,0,28.9-5.9,39.3-16.3c10.4-10.4,16.3-24.6,16.3-39.3c0-1.6-0.6-3.1-1.7-4.2
		C558,396.1,556.5,395.5,554.9,395.5L554.9,395.5z M263.8,480c0,6.1-2.4,11.9-6.7,16.2c-4.3,4.3-10.1,6.7-16.2,6.7
		s-11.9-2.4-16.2-6.7c-4.3-4.3-6.7-10.1-6.7-16.2c0-6.1,2.4-11.9,6.7-16.2c4.3-4.3,10.1-6.7,16.2-6.7c6.1,0,11.9,2.4,16.2,6.7
		C261.4,468.1,263.8,473.9,263.8,480L263.8,480z M350.2,286.4c2.2,0.9,4.8,0.4,6.5-1.3l97.2-97.2c28.4,31,41.1,73.3,34.4,114.9
		c-6.7,41.5-32,77.7-68.8,98.3c-36.7,20.5-80.9,23.1-119.7,7c-38.9-16.1-68.2-49.1-79.7-89.6c-11.5-40.5-3.8-84,20.9-118.1
		c24.6-34.1,63.5-55.1,105.6-56.9v137.5C346.5,283.3,348,285.4,350.2,286.4L350.2,286.4z M188.1,280.9c0-42.5,16.6-83.4,46.1-114
		c29.5-30.6,69.8-48.6,112.3-50.2v14.9c-45.7,1.8-88.1,24.5-115,61.5c-26.9,37-35.3,84.4-22.9,128.4c12.4,44.1,44.4,80,86.7,97.5
		c42.3,17.5,90.3,14.7,130.2-7.7c39.9-22.4,67.4-61.8,74.6-107c7.2-45.2-6.8-91.2-37.8-124.9l10.5-10.5
		c24.4,26.2,39.6,59.7,43.2,95.4c3.6,35.6-4.5,71.5-23.2,102.1c-18.7,30.6-46.8,54.2-80.2,67.4c-33.3,13.1-70.1,15-104.6,5.3
		c-34.5-9.7-64.9-30.4-86.5-59C199.9,351.6,188.1,316.7,188.1,280.9L188.1,280.9z M481.9,480c0,6.1-2.4,11.9-6.7,16.2
		s-10.1,6.7-16.2,6.7c-6.1,0-11.9-2.4-16.2-6.7s-6.7-10.1-6.7-16.2c0-6.1,2.4-11.9,6.7-16.2s10.1-6.7,16.2-6.7
		c6.1,0,11.9,2.4,16.2,6.7C479.5,468.1,481.9,473.9,481.9,480L481.9,480z"/>
	<g>
		<defs>
			<line id="SVGID_1_" x1="836.9" y1="1325.6" x2="136.9" y2="1325.6"/>
		</defs>
		<clipPath id="SVGID_2_">
			<use xlink:href="#SVGID_1_"  style="overflow:visible;"/>
		</clipPath>
	</g>
	<g>
		<defs>
			<line id="SVGID_3_" x1="964.2" y1="1325.6" x2="264.2" y2="1325.6"/>
		</defs>
		<clipPath id="SVGID_4_">
			<use xlink:href="#SVGID_3_"  style="overflow:visible;"/>
		</clipPath>
	</g>
	<g>
		<defs>
			<line id="SVGID_5_" x1="995.3" y1="1325.6" x2="295.3" y2="1325.6"/>
		</defs>
		<clipPath id="SVGID_6_">
			<use xlink:href="#SVGID_5_"  style="overflow:visible;"/>
		</clipPath>
	</g>
	<g>
		<defs>
			<line id="SVGID_7_" x1="1010.1" y1="1325.6" x2="310.1" y2="1325.6"/>
		</defs>
		<clipPath id="SVGID_8_">
			<use xlink:href="#SVGID_7_"  style="overflow:visible;"/>
		</clipPath>
	</g>
	<g>
		<defs>
			<line id="SVGID_9_" x1="1020.6" y1="1325.6" x2="320.6" y2="1325.6"/>
		</defs>
		<clipPath id="SVGID_10_">
			<use xlink:href="#SVGID_9_"  style="overflow:visible;"/>
		</clipPath>
	</g>
	<g>
		<defs>
			<line id="SVGID_11_" x1="1035.4" y1="1325.6" x2="335.4" y2="1325.6"/>
		</defs>
		<clipPath id="SVGID_12_">
			<use xlink:href="#SVGID_11_"  style="overflow:visible;"/>
		</clipPath>
	</g>
	<g>
		<defs>
			<line id="SVGID_13_" x1="779.5" y1="1347.5" x2="79.5" y2="1347.5"/>
		</defs>
		<clipPath id="SVGID_14_">
			<use xlink:href="#SVGID_13_"  style="overflow:visible;"/>
		</clipPath>
	</g>
	<g>
		<defs>
			<line id="SVGID_15_" x1="835.7" y1="1347.5" x2="135.7" y2="1347.5"/>
		</defs>
		<clipPath id="SVGID_16_">
			<use xlink:href="#SVGID_15_"  style="overflow:visible;"/>
		</clipPath>
	</g>
	<g>
		<defs>
			<line id="SVGID_17_" x1="861.8" y1="1347.5" x2="161.8" y2="1347.5"/>
		</defs>
		<clipPath id="SVGID_18_">
			<use xlink:href="#SVGID_17_"  style="overflow:visible;"/>
		</clipPath>
	</g>
	<g>
		<defs>
			<line id="SVGID_19_" x1="902.5" y1="1347.5" x2="202.5" y2="1347.5"/>
		</defs>
		<clipPath id="SVGID_20_">
			<use xlink:href="#SVGID_19_"  style="overflow:visible;"/>
		</clipPath>
	</g>
	<g>
		<defs>
			<line id="SVGID_21_" x1="956.3" y1="1347.5" x2="256.3" y2="1347.5"/>
		</defs>
		<clipPath id="SVGID_22_">
			<use xlink:href="#SVGID_21_"  style="overflow:visible;"/>
		</clipPath>
	</g>
	<g>
		<defs>
			<line id="SVGID_23_" x1="972.4" y1="1347.5" x2="272.4" y2="1347.5"/>
		</defs>
		<clipPath id="SVGID_24_">
			<use xlink:href="#SVGID_23_"  style="overflow:visible;"/>
		</clipPath>
	</g>
	<g>
		<defs>
			<line id="SVGID_25_" x1="983.1" y1="1347.5" x2="283.1" y2="1347.5"/>
		</defs>
		<clipPath id="SVGID_26_">
			<use xlink:href="#SVGID_25_"  style="overflow:visible;"/>
		</clipPath>
	</g>
	<g>
		<defs>
			<line id="SVGID_27_" x1="1005.7" y1="1347.5" x2="305.7" y2="1347.5"/>
		</defs>
		<clipPath id="SVGID_28_">
			<use xlink:href="#SVGID_27_"  style="overflow:visible;"/>
		</clipPath>
	</g>
	<g>
		<defs>
			<line id="SVGID_29_" x1="1033.5" y1="1347.5" x2="333.5" y2="1347.5"/>
		</defs>
		<clipPath id="SVGID_30_">
			<use xlink:href="#SVGID_29_"  style="overflow:visible;"/>
		</clipPath>
	</g>
</g>
</svg>
